<?xml version="1.0" standalone="no"?>
<!DOCTYPE svg PUBLIC "-//W3C//DTD SVG 20010904//EN"
 "http://www.w3.org/TR/2001/REC-SVG-20010904/DTD/svg10.dtd">
<svg version="1.0" xmlns="http://www.w3.org/2000/svg"
 width="369.000000pt" height="48.000000pt" viewBox="0 0 369.000000 48.000000"
 preserveAspectRatio="xMidYMid meet">

<g transform="translate(0.000000,48.000000) scale(0.100000,-0.100000)"
fill="#000000" stroke="none">
<path d="M1178 188 c-26 -62 -44 -116 -42 -120 11 -17 45 -7 56 17 17 37 94
37 108 0 7 -18 17 -25 35 -25 14 0 25 6 25 13 -1 6 -20 59 -44 117 -37 89 -48
105 -68 108 -22 3 -28 -7 -70 -110z m87 -5 c5 -20 3 -23 -19 -23 -24 0 -24 2
-14 31 11 32 21 29 33 -8z"/>
<path d="M1390 180 l0 -120 25 0 c23 0 25 4 25 48 l1 47 20 -25 c51 -62 60
-70 84 -70 33 0 32 9 -9 56 l-34 39 24 28 c31 36 30 62 -1 92 -20 21 -34 25
-80 25 l-55 0 0 -120z m100 45 c0 -16 -34 -38 -44 -28 -3 3 -6 16 -6 28 0 12
3 25 6 28 10 10 44 -12 44 -28z"/>
<path d="M1645 278 c-61 -48 -66 -136 -9 -189 20 -19 36 -24 75 -24 41 0 53 5
79 30 39 40 48 90 25 139 -31 65 -116 87 -170 44z m109 -50 c22 -31 20 -74 -4
-98 -25 -25 -55 -25 -80 0 -41 41 -14 120 40 120 18 0 34 -8 44 -22z"/>
<path d="M1850 290 c0 -6 21 -60 46 -121 61 -145 69 -145 134 11 l48 115 -25
3 c-32 4 -35 1 -63 -75 -12 -35 -25 -63 -29 -63 -3 0 -18 30 -32 68 -22 57
-30 67 -53 70 -14 2 -26 -2 -26 -8z"/>
<path d="M2126 185 c-25 -63 -46 -117 -46 -120 0 -3 11 -5 25 -5 17 0 29 8 37
25 17 37 94 37 108 0 7 -18 17 -25 35 -25 14 0 25 4 25 8 0 4 -20 57 -44 117
-38 95 -47 110 -69 113 -23 3 -28 -5 -71 -113z m94 -17 c0 -5 -11 -8 -24 -8
-24 0 -24 2 -14 31 l11 32 13 -24 c7 -13 13 -27 14 -31z"/>
<path d="M2340 180 l0 -120 25 0 c23 0 24 3 27 72 l3 71 45 -69 c36 -55 50
-69 70 -69 l25 0 0 115 0 115 -27 3 c-27 3 -27 3 -30 -65 l-3 -67 -44 67 c-33
52 -49 67 -67 67 -24 0 -24 0 -24 -120z"/>
</g>
</svg>
